<?xml version="1.0" encoding="UTF-8"?>
<svg width="22px" height="19px" viewBox="0 0 22 19" version="1.1" xmlns="http://www.w3.org/2000/svg" xmlns:xlink="http://www.w3.org/1999/xlink">
    <title>Fill 1</title>
    <g id="HOME-WIP" stroke="none" stroke-width="1" fill="none" fill-rule="evenodd">
        <g id="HOME-Proposta-Copy" transform="translate(-313.000000, -7030.000000)" fill="#00A857">
            <g id="Group-2" transform="translate(162.000000, 6880.000000)">
                <g id="Group-3" transform="translate(0.000000, 11.000000)">
                    <path d="M169.286294,149.884287 L163.202902,155.442431 L163.202902,139.049895 C163.202902,138.470353 162.742303,138 162.174781,138 C161.606744,138 161.14666,138.470353 161.14666,139.049895 L161.14666,155.761599 L154.713706,149.884287 C154.290121,149.496875 153.639834,149.534672 153.262,149.966178 C152.883651,150.39821 152.919121,151.062269 153.342193,151.44863 L161.314243,158.732277 C161.509586,158.910759 161.754793,159 162,159 C162.245207,159 162.490414,158.910759 162.685757,158.732277 L170.657807,151.44863 C171.080879,151.062269 171.116349,150.39821 170.738,149.966178 C170.360166,149.534672 169.709879,149.496875 169.286294,149.884287 Z" id="Fill-1" transform="translate(162.000000, 148.500000) rotate(-90.000000) translate(-162.000000, -148.500000) "></path>
                </g>
            </g>
        </g>
    </g>
</svg>