<svg xmlns="http://www.w3.org/2000/svg" width="43" height="43"><path fill="#FFF" fill-rule="evenodd" d="M10.15 0a1.195 1.195 0 0 1 0 2.39H4.525a2.14 2.14 0 0 0-2.137 2.137v33.946a2.14 2.14 0 0 0 2.137 2.138h33.95a2.14 2.14 0 0 0 2.137-2.138V4.527a2.14 2.14 0 0 0-2.137-2.138H17.316a1.194 1.194 0 0 1 0-2.389h21.16A4.53 4.53 0 0 1 43 4.527v33.946A4.53 4.53 0 0 1 38.475 43H4.525A4.53 4.53 0 0 1 0 38.473V4.527A4.53 4.53 0 0 1 4.525 0ZM21.5 12c5.238 0 9.5 4.262 9.5 9.5 0 5.239-4.262 9.5-9.5 9.5S12 26.739 12 21.5c0-5.238 4.262-9.5 9.5-9.5Zm0 2.367c-3.933 0-7.133 3.2-7.133 7.134 0 3.932 3.2 7.132 7.133 7.132s7.133-3.2 7.133-7.132c0-3.934-3.2-7.134-7.133-7.134ZM34 6c1.054 0 2.086.425 2.828 1.17A4.02 4.02 0 0 1 38 10a4.03 4.03 0 0 1-1.172 2.83A4.036 4.036 0 0 1 34 14a4.022 4.022 0 0 1-2.824-1.17A4.032 4.032 0 0 1 30 10c0-1.054.428-2.087 1.176-2.83A4.012 4.012 0 0 1 34 6Z"/></svg>