<?xml version="1.0" encoding="UTF-8"?>
<svg width="43px" height="43px" viewBox="0 0 43 43" version="1.1" xmlns="http://www.w3.org/2000/svg" xmlns:xlink="http://www.w3.org/1999/xlink">
    <title>Combined Shape</title>
    <g id="HOME-WIP" stroke="none" stroke-width="1" fill="none" fill-rule="evenodd">
        <g id="HOME-Proposta-Copy" transform="translate(-954.000000, -7203.000000)" fill="#FFFFFF">
            <g id="Group-2" transform="translate(162.000000, 6880.000000)">
                <g id="Group" transform="translate(649.000000, 322.000000)">
                    <path d="M181.472647,1 C183.968993,1 186,3.02996348 186,5.52502742 L186,5.52502742 L186,26.6844115 C186,27.3435526 185.46477,27.8785077 184.80529,27.8785077 C184.14581,27.8785077 183.61058,27.3435526 183.61058,26.6844115 L183.61058,26.6844115 L183.61058,5.52502742 C183.61058,4.34705155 182.651825,3.38819233 181.472647,3.38819233 L181.472647,3.38819233 L147.527353,3.38819233 C146.348175,3.38819233 145.38942,4.34705155 145.38942,5.52502742 L145.38942,5.52502742 L145.38942,39.4749726 C145.38942,40.6529484 146.348175,41.6118077 147.527353,41.6118077 L147.527353,41.6118077 L181.472647,41.6118077 C182.651825,41.6118077 183.61058,40.6529484 183.61058,39.4749726 L183.61058,39.4749726 L183.61058,33.8501826 C183.61058,33.1904445 184.14581,32.6560864 184.80529,32.6560864 C185.46477,32.6560864 186,33.1904445 186,33.8501826 L186,33.8501826 L186,39.4749726 C186,41.9700365 183.968993,44 181.472647,44 L181.472647,44 L147.527353,44 C145.031007,44 143,41.9700365 143,39.4749726 L143,39.4749726 L143,5.52502742 C143,3.02996348 145.031007,1 147.527353,1 L147.527353,1 Z M158.722137,14.1882799 C159.218533,13.9229691 159.691596,13.9381471 160.143661,14.2332067 L160.143661,14.2332067 L171.343777,21.311602 C171.781259,21.562342 172,21.9600046 172,22.5064113 C172,23.0522109 171.781259,23.4498736 171.343777,23.7006135 L171.343777,23.7006135 L160.143661,30.7790088 C159.938919,30.9259315 159.691596,31 159.400525,31 C159.181201,31 158.95546,30.9411095 158.722137,30.8239356 C158.24149,30.5574106 158,30.1451771 158,29.5841995 L158,29.5841995 L158,15.428016 C158,14.8670385 158.24149,14.4548049 158.722137,14.1882799 Z" id="Combined-Shape"></path>
                </g>
            </g>
        </g>
    </g>
</svg>