<svg xmlns="http://www.w3.org/2000/svg" width="44" height="46"><g fill="none" fill-rule="evenodd" stroke="#00A857" stroke-linecap="round" stroke-width="2"><path d="m19.587 13.674 1.17-9.597s.073-2.157-1.54-2.291c-1.45-.12-1.934 1.891-1.961 2.006l-.002.011L14.98 15.77a.11.11 0 0 1-.116.095l-.2-.01a.108.108 0 0 1-.105-.103c-.028-.94-.259-10.143-.38-12.74C14.136 2.103 13.944 1 12.464 1c-1.624 0-1.54 1.996-1.536 2.091v.008l-.338 12.724a.114.114 0 0 1-.075.106.11.11 0 0 1-.146-.09c-.1-.934-.732-8.587-1.077-10.967-.198-1.378-.576-2.501-1.898-2.398-1.153.09-1.427 1.321-1.28 2.811.241 2.448.613 10.342.758 11.505a.107.107 0 0 1-.089.117l-.011.002a.11.11 0 0 1-.13-.087c-.16-.938-2.249-7.083-2.714-9.422-.131-.66-.534-1.745-1.736-1.557-.967.152-1.256 1.42-1.18 2.384.21 2.68 2.295 8.851 2.462 10.155v.018l-.356 7.314c-.075 1.529 1.518 5.248 2.949 7.14.527.698 1.032 1.147 1.423 1.147l3.984.983"/><path d="M34.02 14.21c-.934.304-8.128 1.603-9.193 2.881l-2.368 2.744-.001.002-.867.546s0 0 0 0l-5.198 2.638a2.144 2.144 0 0 0-.94 2.87h0a2.115 2.115 0 0 0 2.85.946l5.467-2.775c3.132-1.67-.19 2.816-.19 2.816-.002 0-7.094 10.413-7.094 10.413s0 0 0 0c-.007.014-1.011 1.989.369 2.822 1.246.752 2.589-.91 2.665-1.005l.006-.01 7.171-8.615a.11.11 0 0 1 .146-.038l.171.096c.053.029.074.093.05.148-.408.908-3.566 7.946-4.63 10.415-.372.867-.698 1.979.628 2.63 1.455.716 2.282-1.176 2.322-1.27a.276.276 0 0 0 .004-.008l5.269-10.089c.022-.042.067-.071.114-.065a.11.11 0 0 1 .09.148c-.333.914-2.439 6.705-3.206 9.075-.445 1.372-.614 2.585.618 3.072 1.075.424 1.876-.602 2.419-2.055.886-2.38 3.323-8.252 3.73-9.425a.12.12 0 0 1 .126-.083c.072.01.117.08.097.149-.28.957-.741 5.727-1.38 8.107-.18.673-.254 1.914.906 2.243.94.267 1.773-.792 2.141-1.725 1.02-2.58 1.436-7.364 1.874-8.673l.013-.032L43 22.53"/></g></svg>