<svg xmlns="http://www.w3.org/2000/svg" width="76" height="75"><g fill="none" fill-rule="evenodd" transform="translate(1 1)"><rect width="74" height="73" stroke="#FFF" rx="8"/><path fill="#FFF" d="M44.955 11c-2.26.08-4.951 1.45-6.555 3.298-1.443 1.592-2.697 4.219-2.338 6.69 2.457.158 4.982-1.228 6.563-3.077 1.512-1.837 2.615-4.364 2.33-6.911ZM18.283 39.036l.003-.002h31.53v-.068c-.722-1.428-1.051-3.66-.775-5.47v-.067c.29-2.368 1.844-4.79 3.086-5.67l.049-.036v-.006c.278-.297 1.063-.917 1.594-1.291-1.958-2.83-5.164-4.355-8.43-4.404-3.29-.272-6.707 2.046-8.55 1.993-1.782.053-4.474-2.039-7.315-1.906l-.029-.004c-.063 0-.575.027-.575.027-3.766.091-7.104 2.27-9 5.575v.01h-.011v-.01c-.75 1.19-1.65 3.966-1.784 5.722v.094c-.182 1.115-.006 4.084.198 5.513.009.025.01.05.012.072.163 1.42.9 4.172 1.452 5.516v.013h-.003c.53 1.486 2.01 4.274 2.966 5.7v.011h.01c1.93 2.72 4.203 5.78 7.199 5.648 2.894-.108 3.96-1.888 7.445-1.86 3.485-.028 4.45 1.775 7.502 1.788 3.113-.13 5.042-2.851 6.973-5.576.945-1.404 2.429-4.107 2.953-5.71h.008c.059-.171.146-.431.209-.621-2.047-.57-4.344-3.218-5.147-4.981h-31.57Z" opacity=".9"/></g></svg>