<svg xmlns="http://www.w3.org/2000/svg" width="43" height="43"><path fill="#FFF" fill-rule="evenodd" d="M38.475 0A4.53 4.53 0 0 1 43 4.527v33.946A4.53 4.53 0 0 1 38.475 43h-3.834a1.194 1.194 0 0 1 0-2.39h3.834a2.14 2.14 0 0 0 2.137-2.137V4.527a2.14 2.14 0 0 0-2.137-2.138H4.525a2.14 2.14 0 0 0-2.137 2.138v33.946a2.14 2.14 0 0 0 2.137 2.138H20.31a1.194 1.194 0 0 1 0 2.389H4.525A4.53 4.53 0 0 1 0 38.473V4.527A4.53 4.53 0 0 1 4.525 0Zm-7.088 15 3.306.005c.17 0 .307.134.307.298V18.8a.302.302 0 0 1-.307.298l-2.114.002c-2.303 0-2.62 1.202-2.62 2.5v3.223h4.564a.31.31 0 0 1 .217.087c.057.056.09.132.09.211l-.003 3.816a.303.303 0 0 1-.307.298h-4.562l.001 13.468c0 .08-.033.155-.09.211a.312.312 0 0 1-.217.087H25.55a.311.311 0 0 1-.217-.087.294.294 0 0 1-.09-.21l.003-13.469h-3.94a.303.303 0 0 1-.307-.298V25.12c0-.165.138-.298.307-.298h3.94v-3.696c0-3.778 2.352-6.126 6.14-6.126Z"/></svg>