<svg xmlns="http://www.w3.org/2000/svg" width="76" height="75"><g fill="none" fill-rule="evenodd" transform="translate(1 1)"><rect width="74" height="73" stroke="#FFF" rx="8"/><path fill="#FFF" d="M42.44 21.593c.799 0 1.447.637 1.447 1.422 0 .786-.648 1.422-1.448 1.422a1.435 1.435 0 0 1-1.447-1.422c0-.785.649-1.422 1.447-1.422Zm-10.88 0c.799 0 1.447.637 1.447 1.422 0 .786-.648 1.422-1.447 1.422-.8 0-1.448-.636-1.448-1.422 0-.785.648-1.422 1.448-1.422Zm22.614 8.075c1.554 0 2.826 1.249 2.826 2.776V43.55c0 1.528-1.272 2.777-2.826 2.777-1.555 0-2.827-1.25-2.827-2.777V32.444c0-1.527 1.272-2.776 2.827-2.776Zm-34.348 0c1.554 0 2.826 1.249 2.826 2.776V43.55c0 1.528-1.272 2.777-2.826 2.777-1.555 0-2.826-1.25-2.826-2.777V32.444c0-1.527 1.271-2.776 2.826-2.776Zm14.88 22.383v6.172c0 1.527-1.272 2.777-2.827 2.777-1.554 0-2.825-1.25-2.825-2.777V52.05h-2.371c-1.259 0-2.288-1.012-2.288-2.248V29.572h25.21v20.23c0 1.237-1.03 2.249-2.289 2.249h-2.37v6.172c0 1.527-1.272 2.777-2.826 2.777s-2.826-1.25-2.826-2.777V52.05h-4.588Zm2.293-34.218c1.903 0 3.706.344 5.323.959l2.38-3.602a.429.429 0 0 1 .588-.123.413.413 0 0 1 .125.579l-2.298 3.477c3.802 1.724 6.393 5.006 6.466 8.784H24.415c.074-3.778 2.665-7.06 6.468-8.784l-2.299-3.477a.414.414 0 0 1 .125-.579.43.43 0 0 1 .588.123l2.38 3.602A14.987 14.987 0 0 1 37 17.833Z"/></g></svg>