<svg xmlns="http://www.w3.org/2000/svg" width="43" height="43"><path fill="#FFF" fill-rule="evenodd" d="M38.473 0A4.531 4.531 0 0 1 43 4.525v20.549a1.195 1.195 0 0 1-2.39 0V4.525a2.14 2.14 0 0 0-2.137-2.137H4.527A2.14 2.14 0 0 0 2.39 4.525v33.95a2.14 2.14 0 0 0 2.138 2.137h33.946a2.14 2.14 0 0 0 2.138-2.136v-6.274a1.195 1.195 0 0 1 2.389 0v6.274A4.53 4.53 0 0 1 38.473 43H4.527A4.53 4.53 0 0 1 0 38.476V4.526A4.531 4.531 0 0 1 4.527 0Zm-23.98 18c.44 0 .8.16 1.083.48.282.32.424.768.424 1.348v9.357c0 .57-.142 1.016-.424 1.336-.284.32-.644.479-1.082.479-.439 0-.797-.158-1.076-.472-.28-.316-.418-.763-.418-1.343v-9.357c0-.58.139-1.029.418-1.349.28-.319.637-.479 1.076-.479Zm10.94 0c.614 0 1.192.1 1.734.3.54.2 1.025.494 1.452.882.426.388.762.901 1.01 1.54.247.64.371 1.368.371 2.186v6.327c0 .554-.153.987-.46 1.298-.308.311-.7.467-1.177.467-.452 0-.828-.156-1.126-.467-.299-.311-.448-.744-.448-1.298v-6.34c0-.877-.228-1.549-.684-2.013-.456-.464-1.039-.696-1.747-.696-.853 0-1.59.337-2.213 1.01s-.934 1.55-.934 2.633v5.406c0 .554-.151.987-.454 1.298-.303.311-.688.467-1.158.467-.468 0-.852-.156-1.15-.467-.3-.311-.449-.744-.449-1.298V19.79c0-.512.154-.908.46-1.19.308-.28.696-.422 1.165-.422.46 0 .84.14 1.138.416.299.277.448.667.448 1.17v.447a3.774 3.774 0 0 1 1.645-1.649c.72-.375 1.579-.562 2.577-.562ZM14.51 13c.445 0 .805.137 1.079.412.274.274.411.635.411 1.083 0 .447-.14.81-.416 1.088-.278.278-.638.417-1.084.417-.445 0-.807-.139-1.084-.417-.278-.278-.416-.64-.416-1.088 0-.448.138-.809.416-1.083.277-.275.642-.412 1.094-.412Z"/></svg>