<svg xmlns="http://www.w3.org/2000/svg" width="43" height="43"><path fill="#FFF" fill-rule="evenodd" d="M38.473 0A4.531 4.531 0 0 1 43 4.525v6.273a1.195 1.195 0 0 1-2.39 0V4.525a2.14 2.14 0 0 0-2.137-2.137H4.527A2.14 2.14 0 0 0 2.39 4.525v33.95a2.14 2.14 0 0 0 2.138 2.137h33.946a2.14 2.14 0 0 0 2.138-2.138V17.926a1.195 1.195 0 0 1 2.389 0v20.548A4.532 4.532 0 0 1 38.473 43H4.527A4.532 4.532 0 0 1 0 38.474V4.525A4.531 4.531 0 0 1 4.527 0ZM25.579 13.163c.765-.225 1.498-.217 2.2.024.703.24 1.304.657 1.803 1.25.219-.016.562-.088 1.03-.216.47-.129 1.054-.41 1.756-.842a5.242 5.242 0 0 1-.609 1.298c-.155.241-.343.473-.56.698a2.89 2.89 0 0 1-.75.553c.234-.049.491-.105.772-.17.234-.063.507-.147.82-.252.312-.104.632-.228.959-.372-.14.304-.401.69-.784 1.154a5.846 5.846 0 0 1-1.416 1.226 5.716 5.716 0 0 1 .047.721c0 .673-.075 1.41-.223 2.212a14.287 14.287 0 0 1-.69 2.44 16.039 16.039 0 0 1-1.183 2.452 12.29 12.29 0 0 1-1.698 2.248c-.654.69-1.4 1.298-2.235 1.827a9.446 9.446 0 0 1-2.798 1.178 16.222 16.222 0 0 1-3.605.408c-.515 0-1.05-.028-1.604-.084a10.074 10.074 0 0 1-3.301-.926 6.83 6.83 0 0 1-1.51-.985c1.218.176 2.368.076 3.453-.3a10.353 10.353 0 0 0 2.962-1.599 7.3 7.3 0 0 1-.809-.06c-.334-.04-.694-.161-1.076-.36-.382-.2-.768-.51-1.159-.926-.39-.417-.734-1.002-1.03-1.755.093.032.222.052.386.06s.34.004.527-.012c.188-.016.37-.036.55-.06.18-.024.34-.052.48-.084-.81-.257-1.448-.598-1.908-1.022-.46-.425-.8-.861-1.018-1.31a4.205 4.205 0 0 1-.41-1.274 7.416 7.416 0 0 1-.082-.938c.203.128.5.264.89.409.39.144.74.208 1.053.192-.64-.545-1.104-1.085-1.393-1.622-.29-.538-.46-1.059-.515-1.564a4.476 4.476 0 0 1 .082-1.478c.11-.48.258-.945.445-1.394.858.994 1.713 1.798 2.563 2.416.851.617 1.663 1.094 2.435 1.43.773.337 1.495.562 2.166.673.671.113 1.256.169 1.756.169a6.23 6.23 0 0 1-.012-1.827 4.532 4.532 0 0 1 .538-1.587 4.08 4.08 0 0 1 1.09-1.238c.452-.345.99-.605 1.615-.781Z"/></svg>